<?xml version="1.0" encoding="utf-8"?>
<!-- Generator: Adobe Illustrator 23.0.0, SVG Export Plug-In . SVG Version: 6.00 Build 0)  -->
<svg version="1.1" id="Layer_1" xmlns="http://www.w3.org/2000/svg" xmlns:xlink="http://www.w3.org/1999/xlink" x="0px" y="0px"
	 viewBox="-35.56 -8.02 32.01 32.03" style="enable-background:new -35.56 -8.02 32.01 32.03;" xml:space="preserve">
<style type="text/css">
	.st0{fill:#D22856;}
</style>
<g>
	<path class="st0" d="M-19.46-3.96C-12.87-3.96-7.5,1.41-7.5,8s-5.37,11.96-11.96,11.96S-31.42,14.59-31.42,8
		S-26.06-3.96-19.46-3.96 M-19.46-7.96c-8.81,0-15.96,7.14-15.96,15.96c0,8.81,7.15,15.96,15.96,15.96C-10.65,23.96-3.5,16.81-3.5,8
		C-3.5-0.82-10.65-7.96-19.46-7.96L-19.46-7.96z"/>
</g>
<path class="st0" d="M-19.46,16.33c4.71,0,8.52-3.81,8.52-8.52c0-4.71-3.81-8.52-8.52-8.52"/>
</svg>
