<?xml version="1.0" encoding="utf-8"?>
<!-- Generator: Adobe Illustrator 23.0.0, SVG Export Plug-In . SVG Version: 6.00 Build 0)  -->
<svg version="1.1" id="Layer_1" xmlns="http://www.w3.org/2000/svg" xmlns:xlink="http://www.w3.org/1999/xlink" x="0px" y="0px"
	 viewBox="521.94 473.06 12.55 11.99" style="enable-background:new 521.94 473.06 12.55 11.99;" xml:space="preserve">
<style type="text/css">
	.st0{fill:#D22856;}
</style>
<g>
	<path class="st0" d="M528.17,485.05c-0.21,0-0.41-0.09-0.55-0.25c-3.8-4.32-4.64-5.3-4.86-5.57l0,0c-0.53-0.67-0.82-1.52-0.82-2.37
		c0-2.09,1.7-3.8,3.8-3.8c0.93,0,1.8,0.32,2.48,0.9c0.7-0.58,1.56-0.9,2.46-0.9c2.09,0,3.8,1.7,3.8,3.8c0,0.91-0.32,1.75-0.9,2.38
		l-4.86,5.56C528.59,484.96,528.39,485.05,528.17,485.05L528.17,485.05z M523.93,478.35c0.21,0.25,2.47,2.84,4.24,4.86l4.32-4.94
		c0.34-0.37,0.52-0.86,0.52-1.4c0-1.29-1.04-2.33-2.33-2.33c-0.73,0-1.42,0.34-1.9,0.94c-0.14,0.18-0.35,0.27-0.58,0.28
		c-0.23,0-0.44-0.11-0.58-0.29c-0.44-0.59-1.13-0.92-1.89-0.92c-1.29,0-2.33,1.05-2.33,2.33c0,0.68,0.28,1.17,0.51,1.47
		C523.92,478.34,523.93,478.34,523.93,478.35z"/>
</g>
</svg>
