<?xml version="1.0" encoding="utf-8"?>
<!-- Generator: Adobe Illustrator 23.0.0, SVG Export Plug-In . SVG Version: 6.00 Build 0)  -->
<svg version="1.1" id="Layer_1" xmlns="http://www.w3.org/2000/svg" xmlns:xlink="http://www.w3.org/1999/xlink" x="0px" y="0px"
	 viewBox="0 0 153.38 194.24" style="enable-background:new 0 0 153.38 194.24;" xml:space="preserve">
<style type="text/css">
	.st0{stroke:#231F20;stroke-miterlimit:10;}
</style>
<path class="st0" d="M77.5,0.08L76.69,0L0,8.04v140.57l76.69,45.63l76.69-45.63V8.04L77.5,0.08z M143.35,142.9l-66.66,39.66
	L10.03,142.9V85.29l66.37,39.51l0.11,7.16l-45.53-27.1l-0.07,6.95l45.71,27.47l0.11,7.35l-45.7-27.19l-0.07,6.95l45.71,27.47
	l46.15-27.62v-6.98l-0.06,0.03v-2.39v-2.86V96.6l20.57-12.28V142.9z M143.3,76.84l-18.24,10.74l-8.42,4.96L76.49,68.67l-0.07,6.95
	l34.32,20.41l-0.3,0.18l-0.74,0.44l-4.88,2.87L76.49,82.66l-0.07,6.95l22.36,13.3l-5.28,3.53l-0.13,0.08l-16.89-9.95l-0.07,6.95
	l11.08,6.53l-11.29,6.78L10.18,77.56L76.32,37.8v0.01L143.3,76.84z M143.35,69.85L76.33,30.34v-0.01l-0.01,0l-0.01,0v0.01
	L10.03,69.81V17.08l66.66-6.99l66.66,6.99V69.85z"/>
</svg>
