<?xml version="1.0" encoding="utf-8"?>
<!-- Generator: Adobe Illustrator 23.0.0, SVG Export Plug-In . SVG Version: 6.00 Build 0)  -->
<svg version="1.1" id="Layer_1" xmlns="http://www.w3.org/2000/svg" xmlns:xlink="http://www.w3.org/1999/xlink" x="0px" y="0px"
	 viewBox="0 0 74.43 22.86" style="enable-background:new 0 0 74.43 22.86;" xml:space="preserve">
<style type="text/css">
	.st0{fill:#FFFFFF;}
</style>
<g>
	<path class="st0" d="M0,1.45c0-0.71,0.58-1.29,1.26-1.29h7.18c5.09,0,8.44,2.7,8.44,7.15v0.06c0,4.86-4.06,7.37-8.85,7.37H2.54
		v6.83c0,0.71-0.58,1.29-1.29,1.29C0.58,22.86,0,22.28,0,21.57V1.45z M8.11,12.43c3.73,0,6.18-2,6.18-4.96V7.41
		c0-3.22-2.41-4.89-6.05-4.89h-5.7v9.92H8.11z"/>
	<path class="st0" d="M21.73,1.29c0-0.71,0.58-1.29,1.25-1.29c0.71,0,1.29,0.58,1.29,1.29v20.28c0,0.71-0.58,1.29-1.29,1.29
		c-0.68,0-1.25-0.58-1.25-1.29L21.73,1.29L21.73,1.29z"/>
	<path class="st0" d="M30.87,1.32c0-0.68,0.58-1.26,1.26-1.26h0.35c0.58,0,0.93,0.29,1.29,0.74l13.68,17.45v-17
		C47.45,0.58,48,0,48.71,0c0.68,0,1.22,0.58,1.22,1.26V21.6c0,0.68-0.48,1.19-1.16,1.19h-0.13c-0.55,0-0.93-0.32-1.32-0.77
		L33.35,4.15V21.6c0,0.68-0.55,1.26-1.26,1.26c-0.68,0-1.22-0.58-1.22-1.26V1.32z"/>
	<path class="st0" d="M56.3,1.29C56.3,0.58,56.88,0,57.56,0c0.71,0,1.29,0.58,1.29,1.29v12.33L71.69,0.45
		c0.29-0.26,0.58-0.45,1-0.45c0.68,0,1.22,0.61,1.22,1.26c0,0.35-0.16,0.64-0.42,0.9l-7.98,7.92l8.56,10.56
		c0.22,0.29,0.35,0.55,0.35,0.93c0,0.68-0.58,1.29-1.29,1.29c-0.48,0-0.81-0.26-1.03-0.58l-8.4-10.46l-4.86,4.86v4.89
		c0,0.71-0.58,1.29-1.29,1.29c-0.68,0-1.26-0.58-1.26-1.29L56.3,1.29L56.3,1.29z"/>
</g>
</svg>
