<?xml version="1.0" encoding="utf-8"?>
<!-- Generator: Adobe Illustrator 23.0.0, SVG Export Plug-In . SVG Version: 6.00 Build 0)  -->
<svg version="1.1" id="Layer_1" xmlns="http://www.w3.org/2000/svg" xmlns:xlink="http://www.w3.org/1999/xlink" x="0px" y="0px"
	 viewBox="0 0 146.3 40.37" style="enable-background:new 0 0 146.3 40.37;" xml:space="preserve">
<style type="text/css">
	.st0{fill:#FFFFFF;}
</style>
<g>
	<path class="st0" d="M71.87,18.66c0-0.71,0.58-1.29,1.26-1.29h7.18c5.09,0,8.44,2.7,8.44,7.15v0.06c0,4.86-4.06,7.37-8.85,7.37
		h-5.47v6.83c0,0.71-0.58,1.29-1.29,1.29c-0.68,0-1.26-0.58-1.26-1.29L71.87,18.66L71.87,18.66z M79.99,29.64
		c3.73,0,6.18-2,6.18-4.96v-0.06c0-3.22-2.41-4.89-6.05-4.89h-5.7v9.92L79.99,29.64L79.99,29.64z"/>
	<path class="st0" d="M93.6,18.5c0-0.71,0.58-1.29,1.25-1.29c0.71,0,1.29,0.58,1.29,1.29v20.28c0,0.71-0.58,1.29-1.29,1.29
		c-0.68,0-1.25-0.58-1.25-1.29V18.5z"/>
	<path class="st0" d="M102.74,18.53c0-0.68,0.58-1.26,1.26-1.26h0.35c0.58,0,0.93,0.29,1.29,0.74l13.68,17.45v-17
		c0-0.68,0.55-1.26,1.26-1.26c0.68,0,1.22,0.58,1.22,1.26v20.35c0,0.68-0.48,1.19-1.16,1.19h-0.13c-0.55,0-0.94-0.32-1.32-0.77
		l-13.98-17.87v17.45c0,0.68-0.55,1.26-1.26,1.26c-0.68,0-1.22-0.58-1.22-1.26L102.74,18.53L102.74,18.53z"/>
	<path class="st0" d="M128.17,18.5c0-0.71,0.58-1.29,1.26-1.29c0.71,0,1.29,0.58,1.29,1.29v12.33l12.85-13.17
		c0.29-0.26,0.58-0.45,1-0.45c0.68,0,1.22,0.61,1.22,1.26c0,0.35-0.16,0.64-0.42,0.9l-7.98,7.92l8.56,10.56
		c0.22,0.29,0.35,0.55,0.35,0.94c0,0.68-0.58,1.29-1.29,1.29c-0.48,0-0.81-0.26-1.03-0.58l-8.4-10.46l-4.86,4.86v4.89
		c0,0.71-0.58,1.29-1.29,1.29c-0.68,0-1.26-0.58-1.26-1.29L128.17,18.5L128.17,18.5z"/>
</g>
<path class="st0" d="M60.5,28.27"/>
<path class="st0" d="M60.46,28.02c0-0.01-5.17-21.36-5.17-21.36C54.93,4.3,52.69,0,46.69,0c-0.83,0-1.5,0.67-1.5,1.5
	S45.86,3,46.69,3c4.86,0,5.58,3.73,5.64,4.14l4.77,19.7h-2.07c-0.74-5.93-5.8-10.53-11.93-10.53s-11.19,4.6-11.93,10.53h-1.82
	c-0.74-5.93-5.8-10.53-11.93-10.53S6.23,20.92,5.49,26.84H3.42l4.77-19.7C8.25,6.73,8.97,3,13.83,3c0.83,0,1.5-0.67,1.5-1.5
	S14.65,0,13.83,0c-6.01,0-8.24,4.3-8.6,6.65c0,0-5.17,21.36-5.18,21.36c-0.27,1.11,0.53,1.83,1.43,1.83c0.01,0,0.02,0,0.04,0H5.5
	c0.74,5.93,5.8,10.53,11.93,10.53s11.19-4.6,11.93-10.53h1.81c0.74,5.93,5.8,10.53,11.93,10.53s11.19-4.6,11.93-10.53H59
	c0.01,0,0.02,0,0.04,0C59.93,29.84,60.73,29.13,60.46,28.02z M26.31,29.84c-0.71,4.27-4.42,7.53-8.9,7.53s-8.18-3.26-8.9-7.53
	c-0.08-0.49-0.13-0.99-0.13-1.5c0-0.51,0.05-1.01,0.13-1.5c0.71-4.27,4.42-7.53,8.9-7.53s8.18,3.26,8.9,7.53
	c0.08,0.49,0.14,0.99,0.14,1.5C26.45,28.86,26.4,29.36,26.31,29.84z M51.99,29.84c-0.72,4.27-4.42,7.53-8.9,7.53
	c-4.47,0-8.18-3.26-8.9-7.53c-0.08-0.49-0.14-0.99-0.14-1.5c0-0.51,0.05-1.01,0.14-1.5c0.72-4.27,4.42-7.53,8.9-7.53
	c4.48,0,8.18,3.26,8.9,7.53c0.08,0.49,0.13,0.99,0.13,1.5C52.13,28.86,52.07,29.36,51.99,29.84z"/>
</svg>
