<?xml version="1.0" encoding="utf-8"?>
<!-- Generator: Adobe Illustrator 23.0.0, SVG Export Plug-In . SVG Version: 6.00 Build 0)  -->
<svg version="1.1" id="Layer_1" xmlns="http://www.w3.org/2000/svg" xmlns:xlink="http://www.w3.org/1999/xlink" x="0px" y="0px"
	 viewBox="0 0 46.21 56.75" style="enable-background:new 0 0 46.21 56.75;" xml:space="preserve">
<style type="text/css">
	.st0{fill:#FFFFFF;}
</style>
<path class="st0" d="M38.59,30.15c0.08,8.59,7.54,11.45,7.62,11.48c-0.06,0.2-1.19,4.07-3.93,8.07c-2.37,3.46-4.82,6.9-8.69,6.97
	c-3.8,0.07-5.02-2.25-9.37-2.25c-4.34,0-5.7,2.18-9.3,2.32c-3.73,0.14-6.58-3.74-8.96-7.18c-4.88-7.05-8.6-19.91-3.6-28.59
	c2.48-4.31,6.92-7.04,11.74-7.11c3.67-0.07,7.13,2.47,9.37,2.47c2.24,0,6.44-3.05,10.87-2.6c1.85,0.08,7.04,0.75,10.38,5.63
	C44.46,19.52,38.53,22.97,38.59,30.15 M31.45,9.06c1.98-2.4,3.32-5.74,2.95-9.06c-2.86,0.12-6.31,1.9-8.36,4.3
	c-1.84,2.12-3.44,5.52-3.01,8.78C26.22,13.33,29.47,11.46,31.45,9.06"/>
</svg>
