<?xml version="1.0" encoding="utf-8"?>
<!-- Generator: Adobe Illustrator 23.0.0, SVG Export Plug-In . SVG Version: 6.00 Build 0)  -->
<svg version="1.1" id="Layer_1" xmlns="http://www.w3.org/2000/svg" xmlns:xlink="http://www.w3.org/1999/xlink" x="0px" y="0px"
	 viewBox="0 0 42.08 47.04" style="enable-background:new 0 0 42.08 47.04;" xml:space="preserve">
<style type="text/css">
	.st0{fill:#A4C639;}
</style>
<path class="st0" d="M34.14,14.01H7.94c-0.01,0.11-0.02,0.22-0.02,0.33V33.1c0,1.93,1.46,3.49,3.32,3.63v7.43
	c0,1.59,1.29,2.88,2.88,2.88c1.59,0,2.89-1.29,2.89-2.88v-7.42h8.06v7.42c0,1.59,1.29,2.88,2.88,2.88c1.59,0,2.89-1.29,2.89-2.88
	v-7.43c1.86-0.14,3.32-1.7,3.32-3.63V14.34C34.16,14.23,34.15,14.12,34.14,14.01z"/>
<path id="c-4-9-2-9-2-9" class="st0" d="M2.89,15.68L2.89,15.68c1.59,0,2.89,1.29,2.89,2.88v12.38c0,1.59-1.29,2.89-2.89,2.89l0,0
	C1.29,33.83,0,32.54,0,30.94V18.56C0,16.97,1.29,15.68,2.89,15.68z"/>
<path id="c-4-1-7-3-8-4" class="st0" d="M39.2,15.68L39.2,15.68c1.59,0,2.89,1.29,2.89,2.88v12.38c0,1.59-1.29,2.89-2.89,2.89l0,0
	c-1.59,0-2.88-1.29-2.88-2.89V18.56C36.31,16.97,37.6,15.68,39.2,15.68z"/>
<path class="st0" d="M8.03,11.97h26.03c-0.04-2.78-1.23-5.32-3.19-7.27l2.45-4.23c0.08-0.15,0.03-0.33-0.11-0.41
	c-0.15-0.08-0.33-0.03-0.42,0.11l-2.37,4.11c-2.05-1.85-6.25-3.4-9.37-3.4l0,0c-3.02,0-7.32,1.55-9.37,3.4L9.3,0.15
	C9.21,0.01,9.03-0.04,8.88,0.04C8.74,0.13,8.69,0.31,8.77,0.46l2.44,4.23C9.27,6.65,8.07,9.18,8.03,11.97z M25.32,6.8
	c0-0.81,0.66-1.46,1.49-1.46c0.83,0,1.49,0.65,1.5,1.45c0,0,0,0,0,0.01c0,0.8-0.66,1.46-1.49,1.46C26,8.27,25.33,7.62,25.32,6.8
	C25.32,6.81,25.32,6.81,25.32,6.8z M14.18,6.8c0-0.81,0.66-1.46,1.49-1.46c0.82,0,1.49,0.65,1.5,1.45c0,0,0,0,0,0.01
	c0,0.8-0.66,1.46-1.49,1.46C14.85,8.27,14.18,7.62,14.18,6.8C14.18,6.81,14.18,6.81,14.18,6.8z"/>
</svg>
