<?xml version="1.0" encoding="utf-8"?>
<!-- Generator: Adobe Illustrator 23.0.0, SVG Export Plug-In . SVG Version: 6.00 Build 0)  -->
<svg version="1.1" id="Layer_1" xmlns="http://www.w3.org/2000/svg" xmlns:xlink="http://www.w3.org/1999/xlink" x="0px" y="0px"
	 viewBox="0 0 26.75 26.75" style="enable-background:new 0 0 26.75 26.75;" xml:space="preserve">
<style type="text/css">
	.st0{fill:#F25B26;}
</style>
<path class="st0" d="M15.5,13.38L26.31,2.56c0.59-0.58,0.59-1.54,0-2.12c-0.59-0.59-1.54-0.59-2.12,0L13.38,11.25L2.56,0.44
	c-0.59-0.59-1.54-0.59-2.12,0c-0.59,0.58-0.59,1.54,0,2.12l10.81,10.81L0.44,24.19c-0.59,0.59-0.59,1.54,0,2.12
	c0.29,0.29,0.68,0.44,1.06,0.44c0.38,0,0.77-0.15,1.06-0.44L13.38,15.5l10.81,10.81c0.29,0.29,0.68,0.44,1.06,0.44
	c0.38,0,0.77-0.15,1.06-0.44c0.59-0.59,0.59-1.54,0-2.12L15.5,13.38z"/>
</svg>
