<?xml version="1.0" encoding="utf-8"?>
<!-- Generator: Adobe Illustrator 23.0.0, SVG Export Plug-In . SVG Version: 6.00 Build 0)  -->
<svg version="1.1" id="Layer_1" xmlns="http://www.w3.org/2000/svg" xmlns:xlink="http://www.w3.org/1999/xlink" x="0px" y="0px"
	 viewBox="0 0 17.5 14.66" style="enable-background:new 0 0 17.5 14.66;" xml:space="preserve">
<style type="text/css">
	.st0{fill:#D22856;}
</style>
<g id="W6EeEF_1_">
	<g>
		<path class="st0" d="M11.28,0.15c1.74-0.48,3.07,0.26,3.68,1.15c0.69-0.23,1.37-0.47,2.07-0.69c0,0.84-0.54,1.48-0.88,1.73
			c0.7,0.17,1.34-0.48,1.34-0.48c-0.17,0.98-1.04,1.75-1.61,1.98c-0.24,6.59-3.27,10.96-10.38,10.82c-0.54,0,0.08,0-0.46,0
			c-0.42,0-4.29-0.45-5.05-1.84c2.34,0.19,4.01-0.41,4.84-1.15c-0.99-0.29-2.76-0.46-3.07-2.88c0.36,0.1,0.58,0.22,1.23,0.12
			C1.76,8.07,0.38,7.37,0.46,5.22c0.29,0.32,1.1,0.52,1.38,0.46C1.12,5.44-0.19,2.4,0.92,0.84c1.87,1.81,3.85,3.52,7.37,3.69
			C8.51,2.29,9.46,0.79,11.28,0.15z"/>
	</g>
</g>
</svg>
